# This file uses centimeters as units for non-parametric coordinates.

v -0.959302 -0.014201 2.538286
v 0.860686 -0.014201 2.538286
v -0.959302 12.494843 2.538286
v 0.860686 12.494843 2.538286
v -1.266299 12.527995 -3.163187
v 1.118449 12.527995 -3.163187
v -1.266299 0.013340 -3.163187
v 1.118449 0.013340 -3.163187
v 3.161980 0.013340 -2.922428
v 2.275242 -0.014201 2.685773
v 3.161980 4.155453 -2.922428
v 2.275242 4.020748 2.685773
v 5.273074 0.013340 -2.445267
v 3.560082 -0.014201 3.231210
v 5.273074 3.218690 -2.445267
v 3.560082 3.464455 3.231210
v 7.862586 0.013340 -0.829094
v 4.702462 -0.014201 4.247102
v 7.862586 2.340100 -0.829094
v 4.702462 2.793934 4.247102
v 10.295528 0.013340 1.565923
v 5.834120 -0.014201 5.059769
v 10.295528 2.340100 1.565923
v 5.834120 2.793934 5.059769
v 12.044472 0.013340 4.147559
v 6.878831 -0.014201 6.377427
v 12.373625 2.307122 5.003891
v 6.878831 2.793934 6.377427
v 13.352198 0.013341 7.604168
v 7.514303 -0.014201 7.710250
v 13.352198 5.897027 7.587348
v 7.514303 5.868318 7.304443
v 13.256504 0.013340 10.536502
v 7.731316 -0.014201 9.549297
v 13.256504 5.897026 10.356493
v 7.731316 5.868317 9.869320
v 12.480456 0.013340 13.558946
v 7.139049 -0.014201 11.275896
v 12.480456 2.176413 13.558946
v 7.139049 2.124131 11.275896
v -3.559767 0.013340 -2.640620
v -2.492094 -0.014201 2.755820
v -2.492094 3.924798 2.755820
v -3.559767 4.029727 -2.640620
v -6.273923 -0.004612 -1.357956
v -3.947134 -0.014201 3.625954
v -3.947134 3.320847 3.625954
v -6.273923 3.030520 -1.357956
v -8.027023 0.013340 -0.170302
v -4.922504 -0.014201 4.278557
v -4.922504 2.793934 4.278557
v -8.027023 2.340100 -0.170302
v -10.040285 0.013340 1.729944
v -6.132683 -0.014201 5.257459
v -6.132683 2.793934 5.257459
v -10.040285 2.340100 1.729944
v -12.215277 0.013340 4.485300
v -6.849942 -0.014201 6.598918
v -6.849942 2.793934 6.598918
v -12.215277 2.340100 4.485300
v -13.368732 0.013340 7.810725
v -7.548956 -0.014201 7.976631
v -7.548956 5.750688 7.827755
v -13.368731 5.742896 8.190018
v -13.364162 0.013340 11.326180
v -7.581724 -0.014201 9.680648
v -7.581724 5.750687 10.571265
v -13.364161 5.742894 11.249388
v -11.928761 0.013340 14.271547
v -6.667539 -0.014201 11.674703
v -6.667539 2.124131 11.674703
v -11.928761 2.176413 14.271547
vn 0.040714 0.000000 0.999171
vn -0.027830 0.000000 0.999613
vn 0.012409 0.000000 0.999923
vn -0.007926 0.000000 0.999969
vn 0.912592 0.400433 0.082639
vn 0.888965 0.455968 0.042841
vn -0.897016 0.431456 0.095960
vn -0.873850 0.483631 0.049865
vn -0.032308 0.000000 -0.999478
vn 0.013688 0.000000 -0.999906
vn -0.078580 0.000000 -0.996908
vn 0.036645 0.000000 -0.999328
vn -0.000515 -0.999988 -0.004803
vn 0.000266 -0.999988 -0.004818
vn -0.000391 -0.999988 -0.004863
vn 0.000241 -0.999988 -0.004827
vn -0.393028 0.000000 0.919527
vn -0.393028 0.000000 0.919526
vn -0.393028 0.000000 0.919527
vn -0.393028 0.000000 0.919526
vn 0.442603 0.000000 0.896717
vn 0.442603 0.000000 0.896717
vn 0.442604 0.000000 0.896717
vn 0.442604 0.000000 0.896717
vn 0.000825 -0.999988 -0.004773
vn 0.001123 -0.999989 -0.004604
vn 0.131060 0.000000 -0.991374
vn 0.166353 0.000000 -0.986066
vn 0.921901 0.369021 0.117987
vn 0.929660 0.334814 0.153725
vn -0.139026 0.000000 0.990289
vn -0.240637 0.000000 0.970615
vn 0.001945 -0.999989 -0.004347
vn 0.002512 -0.999989 -0.003930
vn 0.359192 0.000000 -0.933264
vn 0.397652 0.000000 -0.917536
vn 0.334778 0.940214 0.062619
vn 0.358099 0.928377 0.099403
vn -0.496903 0.000000 0.867806
vn -0.531227 0.000000 0.847229
vn 0.002966 -0.999989 -0.003686
vn 0.003140 -0.999989 -0.003604
vn 0.609430 0.000000 -0.792840
vn 0.624052 0.000000 -0.781383
vn 0.179140 0.983823 0.001189
vn 0.199402 0.979312 0.034459
vn -0.634495 0.000000 0.772927
vn -0.626643 0.000000 0.779307
vn 0.003669 -0.999988 -0.003130
vn 0.003393 -0.999988 -0.003550
vn 0.765592 0.000000 -0.643327
vn 0.776464 0.016491 -0.629946
vn 0.066033 0.996696 -0.047300
vn 0.055736 0.996742 -0.058300
vn -0.699507 0.000000 0.714626
vn -0.699507 0.000000 0.714626
vn 0.004122 -0.999988 -0.002621
vn 0.004416 -0.999988 -0.002258
vn 0.884768 0.030840 -0.465011
vn 0.919711 0.015282 -0.392300
vn -0.082285 0.797576 -0.597579
vn 0.020882 0.819516 -0.572676
vn -0.853256 0.022000 0.521027
vn -0.844597 0.000000 0.535403
vn 0.004621 -0.999988 -0.001387
vn 0.004798 -0.999988 -0.000895
vn 0.990768 -0.000143 -0.135569
vn 0.996677 -0.000233 -0.081450
vn -0.066706 0.749846 -0.658241
vn 0.021661 0.844812 -0.534624
vn -0.978196 0.002281 0.207671
vn -0.990879 0.009274 0.134434
vn 0.004754 -0.999989 0.000530
vn 0.004800 -0.999988 0.000717
vn 0.994628 0.002717 0.103483
vn 0.991371 0.003374 0.131041
vn -0.163009 0.799757 0.577769
vn -0.050024 0.854531 0.516986
vn -0.999851 0.006576 0.015982
vn -0.998834 0.000421 -0.048272
vn 0.004674 -0.999988 0.001422
vn 0.004646 -0.999988 0.001193
vn 0.969593 0.006016 0.244649
vn 0.968582 0.000000 0.248695
vn -0.182796 0.567317 0.802955
vn -0.367078 0.377448 0.850169
vn -0.939292 0.016567 -0.342719
vn -0.945897 0.000000 -0.324466
vn 0.001479 -0.999985 -0.005346
vn 0.000357 -0.999992 -0.003945
vn 0.192734 0.000000 0.981251
vn 0.331289 0.000000 0.943529
vn -0.900213 0.412311 0.140056
vn -0.899876 0.393525 0.188046
vn -0.257729 0.000000 -0.966217
vn -0.332636 0.000000 -0.943055
vn -0.001697 -0.999996 -0.002238
vn -0.002827 -0.999994 -0.001764
vn 0.524848 0.000000 0.851196
vn 0.529643 0.000000 0.848221
vn -0.312593 0.946006 0.085775
vn -0.342225 0.931870 0.120421
vn -0.466118 0.000000 -0.884723
vn -0.479599 0.000000 -0.877488
vn -0.005635 -0.999983 -0.001345
vn -0.003192 -0.999987 -0.004050
vn 0.591359 0.000000 0.806408
vn 0.598202 0.000000 0.801346
vn -0.177139 0.984129 0.010555
vn -0.189923 0.981308 0.031033
vn -0.622976 0.000000 -0.782241
vn -0.633851 0.000000 -0.773455
vn -0.003771 -0.999987 -0.003366
vn -0.004045 -0.999986 -0.003326
vn 0.769231 0.000000 0.638971
vn 0.769231 0.000000 0.638971
vn -0.061922 0.996549 -0.055271
vn -0.066412 0.996297 -0.054611
vn -0.743436 0.000000 -0.668807
vn -0.743436 0.000000 -0.668807
vn -0.004267 -0.999988 -0.002592
vn -0.004299 -0.999988 -0.002351
vn 0.886909 0.000000 0.461944
vn 0.882409 0.008265 0.470411
vn 0.176187 0.767006 -0.616976
vn 0.001016 0.862471 -0.506105
vn -0.915358 0.011951 -0.402463
vn -0.877188 0.000000 -0.480148
vn -0.004577 -0.999989 -0.001194
vn -0.004724 -0.999989 -0.000759
vn 0.983326 0.002424 0.181836
vn 0.996569 0.000508 0.082764
vn 0.080483 0.827800 -0.555221
vn -0.027391 0.906884 -0.420490
vn -0.988640 0.008095 -0.150086
vn -0.993698 0.007452 -0.111847
vn -0.004484 -0.999989 0.000993
vn -0.004468 -0.999990 0.001036
vn 0.987426 0.017861 -0.157073
vn 0.996099 0.013472 -0.087205
vn 0.185039 0.801750 0.568294
vn 0.055247 0.874894 0.481154
vn -0.980938 0.002093 0.194310
vn -0.988652 0.002013 0.150212
vn -0.004197 -0.999989 0.002025
vn -0.004269 -0.999989 0.001957
vn 0.879741 0.063316 -0.471219
vn 0.909023 0.000000 -0.416746
vn 0.201151 0.575776 0.792478
vn 0.415954 0.359067 0.835496
vn -0.900252 0.004609 0.435345
vn -0.898933 0.000000 0.438087
f 1//1 2//2 3//3
f 3//3 2//2 4//4
f 4//5 6//6 3//7
f 3//7 6//6 5//8
f 5//9 6//10 7//11
f 7//11 6//10 8//12
f 7//13 8//14 1//15
f 1//15 8//14 2//16
f 38//17 37//18 40//19
f 40//19 37//18 39//20
f 70//21 71//22 69//23
f 69//23 71//22 72//24
f 8//14 9//25 2//16
f 2//16 9//25 10//26
f 6//10 11//27 8//12
f 8//12 11//27 9//28
f 6//6 4//5 11//29
f 11//29 4//5 12//30
f 4//4 2//2 12//31
f 12//31 2//2 10//32
f 9//25 13//33 10//26
f 10//26 13//33 14//34
f 11//27 15//35 9//28
f 9//28 15//35 13//36
f 11//29 12//30 15//37
f 15//37 12//30 16//38
f 12//31 10//32 16//39
f 16//39 10//32 14//40
f 13//33 17//41 14//34
f 14//34 17//41 18//42
f 15//35 19//43 13//36
f 13//36 19//43 17//44
f 15//37 16//38 19//45
f 19//45 16//38 20//46
f 16//39 14//40 20//47
f 20//47 14//40 18//48
f 17//41 21//49 18//42
f 18//42 21//49 22//50
f 17//44 19//43 21//51
f 21//51 19//43 23//52
f 19//45 20//46 23//53
f 23//53 20//46 24//54
f 20//47 18//48 24//55
f 24//55 18//48 22//56
f 22//50 21//49 26//57
f 26//57 21//49 25//58
f 21//51 23//52 25//59
f 25//59 23//52 27//60
f 24//54 28//61 23//53
f 23//53 28//61 27//62
f 24//55 22//56 28//63
f 28//63 22//56 26//64
f 26//57 25//58 30//65
f 30//65 25//58 29//66
f 25//59 27//60 29//67
f 29//67 27//60 31//68
f 28//61 32//69 27//62
f 27//62 32//69 31//70
f 26//64 30//71 28//63
f 28//63 30//71 32//72
f 30//65 29//66 34//73
f 34//73 29//66 33//74
f 31//68 35//75 29//67
f 29//67 35//75 33//76
f 32//69 36//77 31//70
f 31//70 36//77 35//78
f 32//72 30//71 36//79
f 36//79 30//71 34//80
f 34//73 33//74 38//81
f 38//81 33//74 37//82
f 35//75 39//83 33//76
f 33//76 39//83 37//84
f 35//78 36//77 39//85
f 39//85 36//77 40//86
f 36//79 34//80 40//87
f 40//87 34//80 38//88
f 7//13 1//15 41//89
f 41//89 1//15 42//90
f 3//3 43//91 1//1
f 1//1 43//91 42//92
f 5//8 44//93 3//7
f 3//7 44//93 43//94
f 5//9 7//11 44//95
f 44//95 7//11 41//96
f 41//89 42//90 45//97
f 45//97 42//90 46//98
f 43//91 47//99 42//92
f 42//92 47//99 46//100
f 44//93 48//101 43//94
f 43//94 48//101 47//102
f 44//95 41//96 48//103
f 48//103 41//96 45//104
f 45//97 46//98 49//105
f 49//105 46//98 50//106
f 47//99 51//107 46//100
f 46//100 51//107 50//108
f 48//101 52//109 47//102
f 47//102 52//109 51//110
f 48//103 45//104 52//111
f 52//111 45//104 49//112
f 49//105 50//106 53//113
f 53//113 50//106 54//114
f 50//108 51//107 54//115
f 54//115 51//107 55//116
f 52//109 56//117 51//110
f 51//110 56//117 55//118
f 52//111 49//112 56//119
f 56//119 49//112 53//120
f 54//114 58//121 53//113
f 53//113 58//121 57//122
f 54//115 55//116 58//123
f 58//123 55//116 59//124
f 55//118 56//117 59//125
f 59//125 56//117 60//126
f 56//119 53//120 60//127
f 60//127 53//120 57//128
f 58//121 62//129 57//122
f 57//122 62//129 61//130
f 58//123 59//124 62//131
f 62//131 59//124 63//132
f 59//125 60//126 63//133
f 63//133 60//126 64//134
f 57//128 61//135 60//127
f 60//127 61//135 64//136
f 62//129 66//137 61//130
f 61//130 66//137 65//138
f 62//131 63//132 66//139
f 66//139 63//132 67//140
f 63//133 64//134 67//141
f 67//141 64//134 68//142
f 61//135 65//143 64//136
f 64//136 65//143 68//144
f 65//138 66//137 69//145
f 69//145 66//137 70//146
f 67//140 71//147 66//139
f 66//139 71//147 70//148
f 68//142 72//149 67//141
f 67//141 72//149 71//150
f 68//144 65//143 72//151
f 72//151 65//143 69//152
