# This file uses centimeters as units for non-parametric coordinates.

v -1.086021 -0.000000 1.978494
v 0.956989 -0.000000 1.978495
v -1.086021 11.559889 1.978494
v 0.956989 11.559889 1.978495
v -1.086021 11.559889 -1.913979
v 0.956989 11.559889 -1.913979
v -1.086021 -0.000000 -1.913979
v 0.956989 -0.000000 -1.913979
v 2.707680 -0.000000 -1.707720
v 2.544887 -0.000000 2.144054
v 2.707680 3.805175 -1.707720
v 2.544887 3.805175 2.144054
v 4.516252 -0.000000 -1.298938
v 3.987172 -0.000000 2.756330
v 4.516252 2.428832 -1.298938
v 3.987172 2.428832 2.756330
v 6.734684 -0.000000 0.085636
v 5.269540 -0.000000 3.896710
v 6.734684 1.676145 0.085636
v 5.269540 1.676145 3.896710
v 8.818982 -0.000000 2.137444
v 6.539872 -0.000000 4.808961
v 8.818982 1.676145 2.137444
v 6.539872 1.676145 4.808961
v 10.317302 -0.000000 4.349130
v 7.712603 -0.000000 6.288087
v 10.599285 1.647894 5.082747
v 7.712603 1.676145 6.288087
v 11.437629 0.000000 7.310403
v 8.425945 -0.000000 7.784235
v 11.437629 5.879147 7.790422
v 8.425945 5.879147 8.085033
v 11.355648 -0.000000 9.822530
v 8.669552 -0.000000 9.848640
v 11.355648 5.879146 9.352393
v 8.669552 5.879146 9.368622
v 10.690809 -0.000000 12.411854
v 8.004706 -0.000000 11.786818
v 10.690809 1.676144 12.411854
v 8.004706 1.676144 11.786818
v -3.050833 -0.000000 -1.466296
v -2.806643 -0.000000 2.222685
v -2.806643 3.697466 2.222685
v -3.050833 3.697466 -1.466296
v -5.376048 -0.015379 -0.367440
v -4.439984 -0.000000 3.199446
v -4.439984 2.267628 3.199446
v -5.376048 2.267628 -0.367440
v -6.877926 -0.000000 0.650023
v -5.534878 -0.000000 3.932019
v -5.534878 1.676145 3.932019
v -6.877926 1.676145 0.650023
v -8.602686 -0.000000 2.277961
v -6.893352 -0.000000 5.030877
v -6.893352 1.676145 5.030877
v -8.602686 1.676145 2.277961
v -10.466000 -0.000000 4.638472
v -7.698506 -0.000000 6.536719
v -7.698506 1.676145 6.536719
v -10.466000 1.676145 4.638472
v -11.454163 -0.000000 7.487360
v -8.483177 -0.000000 8.083259
v -8.483177 5.747103 8.471811
v -11.454163 5.747103 8.130365
v -11.450247 -0.000000 10.499046
v -8.519960 -0.000000 9.996086
v -8.519960 5.747101 9.567848
v -11.450247 5.747101 9.856041
v -10.220541 -0.000000 13.022339
v -7.493750 -0.000000 12.234494
v -7.493750 1.676144 12.234494
v -10.220541 1.676144 13.022339
vn 0.042609 0.000000 0.999092
vn -0.029117 0.000000 0.999576
vn 0.014822 0.000000 0.999890
vn -0.009518 0.000000 0.999955
vn -0.894041 0.447722 0.015383
vn 0.901204 0.433261 0.010816
vn -0.887505 0.460797 0.000000
vn 0.896698 0.442643 0.000000
vn -0.030327 0.000000 -0.999540
vn 0.012804 0.000000 -0.999918
vn -0.077263 0.000000 -0.997011
vn 0.036023 0.000000 -0.999351
vn 0.000000 -1.000000 0.000000
vn 0.000000 -1.000000 0.000000
vn 0.000000 -1.000000 0.000000
vn 0.000000 -1.000000 0.000000
vn -0.226638 0.000000 0.973979
vn -0.226638 0.000000 0.973979
vn -0.226638 0.000000 0.973979
vn -0.226637 0.000000 0.973979
vn 0.277573 0.000000 0.960705
vn 0.277574 0.000000 0.960704
vn 0.277573 0.000000 0.960704
vn 0.277574 0.000000 0.960704
vn 0.000000 -1.000000 0.000000
vn 0.000000 -1.000000 0.000000
vn 0.128396 0.000000 -0.991723
vn 0.164133 0.000000 -0.986438
vn 0.939126 0.342289 0.029694
vn 0.934162 0.353362 0.049756
vn -0.130941 0.000000 0.991390
vn -0.229771 0.000000 0.973245
vn 0.000000 -1.000000 0.000000
vn 0.000000 -1.000000 -0.000000
vn 0.339411 0.000000 -0.940638
vn 0.397756 0.000000 -0.917491
vn 0.483795 0.874156 0.042359
vn 0.488751 0.866617 0.100482
vn -0.472341 0.000000 0.881416
vn -0.529522 0.000000 0.848296
vn 0.000000 -1.000000 0.000000
vn 0.000000 -1.000000 0.000000
vn 0.608845 0.000000 -0.793289
vn 0.624052 0.000000 -0.781383
vn 0.183257 0.982412 0.035822
vn 0.158102 0.985550 0.060781
vn -0.635874 0.000000 0.771793
vn -0.626643 0.000000 0.779307
vn 0.000000 -1.000000 -0.000000
vn 0.000000 -1.000000 -0.000000
vn 0.765591 0.000000 -0.643327
vn 0.775102 0.017241 -0.631600
vn 0.003134 0.999992 0.002674
vn 0.004296 0.999990 0.001324
vn -0.699507 0.000000 0.714626
vn -0.699507 0.000000 0.714626
vn 0.000000 -1.000000 0.000000
vn 0.000000 -1.000000 0.000000
vn 0.883062 0.040641 -0.467493
vn 0.928123 0.031297 -0.370956
vn -0.174897 0.776546 -0.605300
vn -0.271947 0.693139 -0.667535
vn -0.891096 -0.015508 0.453550
vn -0.844597 0.000000 0.535403
vn 0.000000 -1.000000 -0.000000
vn 0.000000 -1.000000 -0.000000
vn 0.990248 0.008859 -0.139034
vn 0.997487 0.009638 -0.070185
vn -0.150942 0.651939 -0.743096
vn -0.069900 0.696076 -0.714557
vn -0.971759 -0.001451 0.235972
vn -0.970341 -0.012352 0.241426
vn 0.000000 -1.000000 -0.000000
vn -0.000000 -1.000000 0.000000
vn 0.990543 0.007373 0.137002
vn 0.992362 0.009833 0.122967
vn -0.045247 0.724807 0.687465
vn 0.003970 0.753835 0.657051
vn -0.999531 -0.010256 0.028865
vn -0.997218 -0.004136 -0.074431
vn -0.000000 -1.000000 0.000000
vn -0.000000 -1.000000 0.000000
vn 0.970906 0.016011 0.238927
vn 0.968582 0.000000 0.248695
vn -0.130556 0.539494 0.831806
vn -0.194663 0.512112 0.836569
vn -0.951328 -0.021886 -0.307403
vn -0.945897 0.000000 -0.324468
vn 0.002919 -0.999996 -0.000193
vn 0.002435 -0.999996 0.001234
vn 0.182922 0.000000 0.983127
vn 0.319094 0.000000 0.947723
vn -0.925791 0.375298 0.045411
vn -0.909323 0.408457 0.079347
vn -0.252721 0.000000 -0.967539
vn -0.329384 0.000000 -0.944196
vn 0.001325 -0.999996 0.002466
vn -0.000027 -0.999996 0.002810
vn 0.521939 0.000000 0.852983
vn 0.529270 0.000000 0.848454
vn -0.469225 0.879694 0.077244
vn -0.490076 0.859307 0.146346
vn -0.460017 0.000000 -0.887910
vn -0.479505 0.000000 -0.877539
vn -0.002750 -0.999993 0.002630
vn 0.000000 -1.000000 0.000000
vn 0.590069 0.000000 0.807353
vn 0.598202 0.000000 0.801346
vn -0.180897 0.982061 0.053214
vn -0.144981 0.987654 0.059329
vn -0.622483 0.000000 -0.782633
vn -0.633851 0.000000 -0.773455
vn 0.000000 -1.000000 0.000000
vn 0.000000 -1.000000 -0.000000
vn 0.769231 0.000000 0.638971
vn 0.769231 0.000000 0.638971
vn 0.000000 1.000000 0.000000
vn 0.000000 1.000000 0.000000
vn -0.743436 0.000000 -0.668807
vn -0.743436 0.000000 -0.668807
vn 0.000000 -1.000000 0.000000
vn 0.000000 -1.000000 -0.000000
vn 0.886909 0.000000 0.461944
vn 0.899181 -0.021455 0.437050
vn 0.314299 0.831414 -0.458223
vn 0.294210 0.750873 -0.591295
vn -0.924608 0.022763 -0.380239
vn -0.877188 0.000000 -0.480148
vn 0.000000 -1.000000 -0.000000
vn 0.000000 -1.000000 -0.000000
vn 0.980215 -0.009280 0.197716
vn 0.988190 -0.010336 0.152884
vn 0.221298 0.715076 -0.663094
vn 0.091070 0.603140 -0.792420
vn -0.987032 0.015982 -0.159725
vn -0.991954 0.014076 -0.125811
vn 0.000000 -1.000000 -0.000000
vn 0.000000 -1.000000 -0.000000
vn 0.989122 -0.012950 -0.146527
vn 0.978831 -0.012937 -0.204263
vn 0.102528 0.738672 0.666221
vn 0.061175 0.780614 0.622012
vn -0.989860 0.015598 0.141189
vn -0.979919 0.019510 0.198437
vn 0.000000 -1.000000 0.000000
vn 0.000000 -1.000000 0.000000
vn 0.915766 -0.025269 -0.400916
vn 0.909023 0.000000 -0.416747
vn 0.174694 0.593621 0.785554
vn 0.227475 0.573062 0.787309
vn -0.908094 0.038471 0.416997
vn -0.898932 0.000000 0.438088
f 1//1 2//2 3//3
f 3//3 2//2 4//4
f 3//5 4//6 5//7
f 5//7 4//6 6//8
f 5//9 6//10 7//11
f 7//11 6//10 8//12
f 7//13 8//14 1//15
f 1//15 8//14 2//16
f 38//17 37//18 40//19
f 40//19 37//18 39//20
f 69//21 70//22 72//23
f 72//23 70//22 71//24
f 8//14 9//25 2//16
f 2//16 9//25 10//26
f 6//10 11//27 8//12
f 8//12 11//27 9//28
f 6//8 4//6 11//29
f 11//29 4//6 12//30
f 4//4 2//2 12//31
f 12//31 2//2 10//32
f 9//25 13//33 10//26
f 10//26 13//33 14//34
f 11//27 15//35 9//28
f 9//28 15//35 13//36
f 11//29 12//30 15//37
f 15//37 12//30 16//38
f 12//31 10//32 16//39
f 16//39 10//32 14//40
f 13//33 17//41 14//34
f 14//34 17//41 18//42
f 15//35 19//43 13//36
f 13//36 19//43 17//44
f 15//37 16//38 19//45
f 19//45 16//38 20//46
f 16//39 14//40 20//47
f 20//47 14//40 18//48
f 17//41 21//49 18//42
f 18//42 21//49 22//50
f 17//44 19//43 21//51
f 21//51 19//43 23//52
f 19//45 20//46 23//53
f 23//53 20//46 24//54
f 20//47 18//48 24//55
f 24//55 18//48 22//56
f 21//49 25//57 22//50
f 22//50 25//57 26//58
f 21//51 23//52 25//59
f 25//59 23//52 27//60
f 23//53 24//54 27//61
f 27//61 24//54 28//62
f 24//55 22//56 28//63
f 28//63 22//56 26//64
f 25//57 29//65 26//58
f 26//58 29//65 30//66
f 25//59 27//60 29//67
f 29//67 27//60 31//68
f 28//62 32//69 27//61
f 27//61 32//69 31//70
f 26//64 30//71 28//63
f 28//63 30//71 32//72
f 29//65 33//73 30//66
f 30//66 33//73 34//74
f 29//67 31//68 33//75
f 33//75 31//68 35//76
f 32//69 36//77 31//70
f 31//70 36//77 35//78
f 32//72 30//71 36//79
f 36//79 30//71 34//80
f 33//73 37//81 34//74
f 34//74 37//81 38//82
f 35//76 39//83 33//75
f 33//75 39//83 37//84
f 35//78 36//77 39//85
f 39//85 36//77 40//86
f 36//79 34//80 40//87
f 40//87 34//80 38//88
f 7//13 1//15 41//89
f 41//89 1//15 42//90
f 3//3 43//91 1//1
f 1//1 43//91 42//92
f 5//7 44//93 3//5
f 3//5 44//93 43//94
f 5//9 7//11 44//95
f 44//95 7//11 41//96
f 41//89 42//90 45//97
f 45//97 42//90 46//98
f 43//91 47//99 42//92
f 42//92 47//99 46//100
f 44//93 48//101 43//94
f 43//94 48//101 47//102
f 44//95 41//96 48//103
f 48//103 41//96 45//104
f 45//97 46//98 49//105
f 49//105 46//98 50//106
f 47//99 51//107 46//100
f 46//100 51//107 50//108
f 48//101 52//109 47//102
f 47//102 52//109 51//110
f 48//103 45//104 52//111
f 52//111 45//104 49//112
f 49//105 50//106 53//113
f 53//113 50//106 54//114
f 50//108 51//107 54//115
f 54//115 51//107 55//116
f 52//109 56//117 51//110
f 51//110 56//117 55//118
f 52//111 49//112 56//119
f 56//119 49//112 53//120
f 53//113 54//114 57//121
f 57//121 54//114 58//122
f 54//115 55//116 58//123
f 58//123 55//116 59//124
f 56//117 60//125 55//118
f 55//118 60//125 59//126
f 56//119 53//120 60//127
f 60//127 53//120 57//128
f 57//121 58//122 61//129
f 61//129 58//122 62//130
f 58//123 59//124 62//131
f 62//131 59//124 63//132
f 60//125 64//133 59//126
f 59//126 64//133 63//134
f 57//128 61//135 60//127
f 60//127 61//135 64//136
f 61//129 62//130 65//137
f 65//137 62//130 66//138
f 63//132 67//139 62//131
f 62//131 67//139 66//140
f 63//134 64//133 67//141
f 67//141 64//133 68//142
f 64//136 61//135 68//143
f 68//143 61//135 65//144
f 65//137 66//138 69//145
f 69//145 66//138 70//146
f 67//139 71//147 66//140
f 66//140 71//147 70//148
f 68//142 72//149 67//141
f 67//141 72//149 71//150
f 68//143 65//144 72//151
f 72//151 65//144 69//152
