# This file uses centimeters as units for non-parametric coordinates.

v -1.464836 -0.001926 1.511551
v 1.400320 -0.001926 1.511551
v -1.464836 0.868663 1.511551
v 1.400320 0.868663 1.511551
v -1.464836 1.739251 1.511551
v 1.400320 1.739251 1.511551
v -1.569241 2.609839 1.511551
v 1.504725 2.609839 1.511551
v -1.813187 3.480428 1.511551
v 1.748671 3.480428 1.511551
v -2.305652 4.351016 1.511551
v 2.241136 4.351016 1.511551
v -3.147720 5.221605 1.511551
v 3.083204 5.221605 1.511551
v -4.257719 6.092193 1.511551
v 4.193202 6.092193 1.511551
v -5.571856 6.962782 1.511551
v 5.507340 6.962782 1.511551
v -7.370817 7.833371 1.511551
v 7.306301 7.833371 1.511551
v -8.955582 8.703959 1.511551
v 8.891066 8.703959 1.511551
v -10.661190 9.574548 1.511551
v 10.596674 9.574548 1.511551
v -12.521240 10.445137 1.511551
v 12.456723 10.445137 1.511551
v -14.239445 11.315725 1.511551
v 14.174929 11.315725 1.511551
v -15.490045 12.186314 1.511551
v 15.425529 12.186314 1.511551
v -16.201297 13.056902 1.511551
v 16.136781 13.056902 1.511551
v -16.843412 13.927491 1.511551
v 16.778896 13.927491 1.511551
v -17.296960 14.798079 1.511551
v 17.232444 14.798079 1.511551
v -17.634557 15.668668 1.511551
v 17.570041 15.668668 1.511551
v -17.864927 16.539256 1.511551
v 17.800411 16.539256 1.511551
v -17.965663 17.409847 1.511551
v 17.901147 17.409847 1.511551
v -17.965663 17.409847 -1.447035
v 17.901147 17.409847 -1.447035
v -17.864927 16.539259 -1.447035
v 17.800411 16.539259 -1.447035
v -17.634557 15.668670 -1.447035
v 17.570041 15.668670 -1.447035
v -17.296960 14.798082 -1.447035
v 17.232444 14.798082 -1.447035
v -16.843412 13.927493 -1.447035
v 16.778896 13.927493 -1.447035
v -16.201297 13.056905 -1.447035
v 16.136781 13.056905 -1.447035
v -15.490045 12.186317 -1.447035
v 15.425529 12.186317 -1.447035
v -14.239445 11.315728 -1.447035
v 14.174929 11.315728 -1.447035
v -12.521240 10.445139 -1.447035
v 12.456723 10.445139 -1.447035
v -10.661190 9.574551 -1.447035
v 10.596674 9.574551 -1.447035
v -8.955582 8.703962 -1.447035
v 8.891066 8.703962 -1.447035
v -7.370817 7.833373 -1.447035
v 7.306301 7.833373 -1.447035
v -5.571856 6.962785 -1.447035
v 5.507340 6.962785 -1.447035
v -4.257719 6.092196 -1.447035
v 4.193202 6.092196 -1.447035
v -3.147720 5.221608 -1.447035
v 3.083204 5.221608 -1.447035
v -2.305652 4.351019 -1.447035
v 2.241136 4.351019 -1.447035
v -1.813187 3.480431 -1.447035
v 1.748671 3.480431 -1.447035
v -1.569241 2.609842 -1.447035
v 1.504725 2.609842 -1.447035
v -1.464836 1.739254 -1.447035
v 1.400320 1.739254 -1.447035
v -1.464836 0.868665 -1.447035
v 1.400320 0.868665 -1.447035
v -1.464836 -0.001926 -1.447035
v 1.400320 -0.001926 -1.447035
vn 0.000000 0.000000 1.000000
vn 0.000000 0.000000 1.000000
vn 0.000000 0.000000 1.000000
vn 0.000000 0.000000 1.000000
vn 0.000000 0.000000 1.000000
vn 0.000000 0.000000 1.000000
vn 0.000000 0.000000 1.000000
vn 0.000000 0.000000 1.000000
vn 0.000000 0.000000 1.000000
vn 0.000000 0.000000 1.000000
vn 0.000000 0.000000 1.000000
vn 0.000000 0.000000 1.000000
vn 0.000000 0.000000 1.000000
vn 0.000000 0.000000 1.000000
vn 0.000000 0.000000 1.000000
vn 0.000000 0.000000 1.000000
vn 0.000000 0.000000 1.000000
vn 0.000000 0.000000 1.000000
vn 0.000000 0.000000 1.000000
vn 0.000000 0.000000 1.000000
vn 0.000000 0.000000 1.000000
vn 0.000000 0.000000 1.000000
vn 0.000000 0.000000 1.000000
vn 0.000000 0.000000 1.000000
vn 0.000000 0.000000 1.000000
vn 0.000000 0.000000 1.000000
vn 0.000000 0.000000 1.000000
vn 0.000000 0.000000 1.000000
vn 0.000000 0.000000 1.000000
vn 0.000000 0.000000 1.000000
vn 0.000000 0.000000 1.000000
vn 0.000000 0.000000 1.000000
vn 0.000000 0.000000 1.000000
vn 0.000000 0.000000 1.000000
vn 0.000000 0.000000 1.000000
vn 0.000000 0.000000 1.000000
vn 0.000000 0.000000 1.000000
vn 0.000000 0.000000 1.000000
vn 0.000000 0.000000 1.000000
vn 0.000000 0.000000 1.000000
vn 0.000000 0.000000 1.000000
vn 0.000000 0.000000 1.000000
vn 0.000000 1.000000 0.000000
vn 0.000000 1.000000 0.000000
vn 0.000000 1.000000 0.000000
vn 0.000000 1.000000 0.000000
vn 0.000000 0.000000 -1.000000
vn 0.000000 0.000000 -1.000000
vn 0.000000 0.000000 -1.000000
vn 0.000000 0.000000 -1.000000
vn 0.000000 0.000000 -1.000000
vn 0.000000 0.000000 -1.000000
vn 0.000000 0.000000 -1.000000
vn 0.000000 0.000000 -1.000000
vn 0.000000 0.000000 -1.000000
vn 0.000000 0.000000 -1.000000
vn 0.000000 0.000000 -1.000000
vn 0.000000 0.000000 -1.000000
vn 0.000000 0.000000 -1.000000
vn 0.000000 0.000000 -1.000000
vn 0.000000 0.000000 -1.000000
vn 0.000000 0.000000 -1.000000
vn 0.000000 0.000000 -1.000000
vn 0.000000 0.000000 -1.000000
vn 0.000000 0.000000 -1.000000
vn 0.000000 0.000000 -1.000000
vn 0.000000 0.000000 -1.000000
vn 0.000000 0.000000 -1.000000
vn 0.000000 0.000000 -1.000000
vn 0.000000 0.000000 -1.000000
vn 0.000000 0.000000 -1.000000
vn 0.000000 0.000000 -1.000000
vn 0.000000 0.000000 -1.000000
vn 0.000000 0.000000 -1.000000
vn 0.000000 0.000000 -1.000000
vn 0.000000 0.000000 -1.000000
vn 0.000000 0.000000 -1.000000
vn 0.000000 0.000000 -1.000000
vn 0.000000 0.000000 -1.000000
vn 0.000000 0.000000 -1.000000
vn 0.000000 0.000000 -1.000000
vn 0.000000 0.000000 -1.000000
vn 0.000000 0.000000 -1.000000
vn 0.000000 0.000000 -1.000000
vn 0.000000 0.000000 -1.000000
vn 0.000000 0.000000 -1.000000
vn 0.000000 0.000000 -1.000000
vn 0.000000 0.000000 -1.000000
vn 0.000000 -1.000000 0.000000
vn 0.000000 -1.000000 0.000000
vn 0.000000 -1.000000 0.000000
vn 0.000000 -1.000000 0.000000
vn 1.000000 0.000000 0.000000
vn 1.000000 0.000000 0.000000
vn 1.000000 0.000000 0.000000
vn 1.000000 0.000000 0.000000
vn 0.998207 -0.059855 -0.000000
vn 0.998207 -0.059855 -0.000000
vn 0.980568 -0.196178 -0.000000
vn 0.980568 -0.196178 -0.000000
vn 0.921013 -0.389532 -0.000000
vn 0.921013 -0.389532 -0.000000
vn 0.793688 -0.608326 -0.000001
vn 0.793688 -0.608326 -0.000001
vn 0.665646 -0.746268 -0.000001
vn 0.665646 -0.746268 -0.000001
vn 0.583378 -0.812201 -0.000001
vn 0.583377 -0.812201 -0.000001
vn 0.488143 -0.872764 -0.000001
vn 0.488143 -0.872764 -0.000001
vn 0.457551 -0.889184 -0.000001
vn 0.457551 -0.889184 -0.000001
vn 0.467723 -0.883875 -0.000001
vn 0.467723 -0.883875 -0.000001
vn 0.438797 -0.898586 -0.000001
vn 0.438797 -0.898586 -0.000001
vn 0.437548 -0.899195 -0.000001
vn 0.437548 -0.899195 -0.000001
vn 0.505902 -0.862591 -0.000001
vn 0.505902 -0.862591 -0.000001
vn 0.663791 -0.747918 -0.000001
vn 0.663790 -0.747919 -0.000001
vn 0.789546 -0.613692 -0.000001
vn 0.789546 -0.613692 -0.000001
vn 0.846371 -0.532594 -0.000000
vn 0.846372 -0.532592 -0.000001
vn 0.910425 -0.413674 -0.000000
vn 0.910426 -0.413672 -0.000000
vn 0.950699 -0.310114 -0.000000
vn 0.950699 -0.310115 -0.000000
vn 0.982395 -0.186814 -0.000000
vn 0.982395 -0.186815 -0.000000
vn 0.993372 -0.114944 -0.000000
vn 0.993372 -0.114944 0.000000
vn -1.000000 0.000000 0.000000
vn -1.000000 0.000000 0.000000
vn -1.000000 0.000000 0.000000
vn -1.000000 0.000000 0.000000
vn -0.998207 -0.059855 -0.000000
vn -0.998207 -0.059855 -0.000000
vn -0.980568 -0.196179 -0.000000
vn -0.980568 -0.196178 -0.000000
vn -0.921013 -0.389532 -0.000000
vn -0.921013 -0.389532 -0.000000
vn -0.793688 -0.608326 -0.000001
vn -0.793688 -0.608326 -0.000001
vn -0.665646 -0.746268 -0.000001
vn -0.665646 -0.746268 -0.000001
vn -0.583377 -0.812201 -0.000001
vn -0.583377 -0.812201 -0.000001
vn -0.488143 -0.872764 -0.000001
vn -0.488143 -0.872764 -0.000001
vn -0.457551 -0.889184 -0.000001
vn -0.457551 -0.889184 -0.000001
vn -0.467723 -0.883875 -0.000001
vn -0.467723 -0.883875 -0.000001
vn -0.438797 -0.898586 -0.000001
vn -0.438797 -0.898586 -0.000001
vn -0.437548 -0.899195 -0.000001
vn -0.437548 -0.899195 -0.000001
vn -0.505902 -0.862591 -0.000001
vn -0.505902 -0.862591 -0.000001
vn -0.663791 -0.747918 -0.000001
vn -0.663790 -0.747919 -0.000001
vn -0.789546 -0.613692 -0.000001
vn -0.789546 -0.613692 -0.000001
vn -0.846371 -0.532594 -0.000001
vn -0.846372 -0.532592 -0.000000
vn -0.910425 -0.413674 -0.000000
vn -0.910426 -0.413673 -0.000000
vn -0.950699 -0.310114 -0.000000
vn -0.950699 -0.310115 -0.000000
vn -0.982395 -0.186814 -0.000000
vn -0.982395 -0.186815 -0.000000
vn -0.993372 -0.114944 -0.000000
vn -0.993372 -0.114944 0.000000
f 1//1 2//2 3//3
f 3//3 2//2 4//4
f 3//3 4//4 5//5
f 5//5 4//4 6//6
f 5//5 6//6 7//7
f 7//7 6//6 8//8
f 7//7 8//8 9//9
f 9//9 8//8 10//10
f 9//9 10//10 11//11
f 11//11 10//10 12//12
f 11//11 12//12 13//13
f 13//13 12//12 14//14
f 13//13 14//14 15//15
f 15//15 14//14 16//16
f 15//15 16//16 17//17
f 17//17 16//16 18//18
f 17//17 18//18 19//19
f 19//19 18//18 20//20
f 19//19 20//20 21//21
f 21//21 20//20 22//22
f 21//21 22//22 23//23
f 23//23 22//22 24//24
f 23//23 24//24 25//25
f 25//25 24//24 26//26
f 25//25 26//26 27//27
f 27//27 26//26 28//28
f 27//27 28//28 29//29
f 29//29 28//28 30//30
f 29//29 30//30 31//31
f 31//31 30//30 32//32
f 31//31 32//32 33//33
f 33//33 32//32 34//34
f 33//33 34//34 35//35
f 35//35 34//34 36//36
f 35//35 36//36 37//37
f 37//37 36//36 38//38
f 37//37 38//38 39//39
f 39//39 38//38 40//40
f 39//39 40//40 41//41
f 41//41 40//40 42//42
f 41//43 42//44 43//45
f 43//45 42//44 44//46
f 43//47 44//48 45//49
f 45//49 44//48 46//50
f 45//49 46//50 47//51
f 47//51 46//50 48//52
f 47//51 48//52 49//53
f 49//53 48//52 50//54
f 49//53 50//54 51//55
f 51//55 50//54 52//56
f 51//55 52//56 53//57
f 53//57 52//56 54//58
f 53//57 54//58 55//59
f 55//59 54//58 56//60
f 55//59 56//60 57//61
f 57//61 56//60 58//62
f 57//61 58//62 59//63
f 59//63 58//62 60//64
f 59//63 60//64 61//65
f 61//65 60//64 62//66
f 61//65 62//66 63//67
f 63//67 62//66 64//68
f 63//67 64//68 65//69
f 65//69 64//68 66//70
f 65//69 66//70 67//71
f 67//71 66//70 68//72
f 67//71 68//72 69//73
f 69//73 68//72 70//74
f 69//73 70//74 71//75
f 71//75 70//74 72//76
f 71//75 72//76 73//77
f 73//77 72//76 74//78
f 73//77 74//78 75//79
f 75//79 74//78 76//80
f 75//79 76//80 77//81
f 77//81 76//80 78//82
f 77//81 78//82 79//83
f 79//83 78//82 80//84
f 79//83 80//84 81//85
f 81//85 80//84 82//86
f 81//85 82//86 83//87
f 83//87 82//86 84//88
f 83//89 84//90 1//91
f 1//91 84//90 2//92
f 2//93 84//94 4//95
f 4//95 84//94 82//96
f 4//95 82//96 6//97
f 6//97 82//96 80//98
f 6//97 80//98 8//99
f 8//99 80//98 78//100
f 8//99 78//100 10//101
f 10//101 78//100 76//102
f 10//101 76//102 12//103
f 12//103 76//102 74//104
f 12//103 74//104 14//105
f 14//105 74//104 72//106
f 14//105 72//106 16//107
f 16//107 72//106 70//108
f 16//107 70//108 18//109
f 18//109 70//108 68//110
f 18//109 68//110 20//111
f 20//111 68//110 66//112
f 20//111 66//112 22//113
f 22//113 66//112 64//114
f 22//113 64//114 24//115
f 24//115 64//114 62//116
f 24//115 62//116 26//117
f 26//117 62//116 60//118
f 26//117 60//118 28//119
f 28//119 60//118 58//120
f 28//119 58//120 30//121
f 30//121 58//120 56//122
f 30//121 56//122 32//123
f 32//123 56//122 54//124
f 32//123 54//124 34//125
f 34//125 54//124 52//126
f 34//125 52//126 36//127
f 36//127 52//126 50//128
f 36//127 50//128 38//129
f 38//129 50//128 48//130
f 38//129 48//130 40//131
f 40//131 48//130 46//132
f 40//131 46//132 42//133
f 42//133 46//132 44//134
f 83//135 1//136 81//137
f 81//137 1//136 3//138
f 81//137 3//138 79//139
f 79//139 3//138 5//140
f 79//139 5//140 77//141
f 77//141 5//140 7//142
f 77//141 7//142 75//143
f 75//143 7//142 9//144
f 75//143 9//144 73//145
f 73//145 9//144 11//146
f 73//145 11//146 71//147
f 71//147 11//146 13//148
f 71//147 13//148 69//149
f 69//149 13//148 15//150
f 69//149 15//150 67//151
f 67//151 15//150 17//152
f 67//151 17//152 65//153
f 65//153 17//152 19//154
f 65//153 19//154 63//155
f 63//155 19//154 21//156
f 63//155 21//156 61//157
f 61//157 21//156 23//158
f 61//157 23//158 59//159
f 59//159 23//158 25//160
f 59//159 25//160 57//161
f 57//161 25//160 27//162
f 57//161 27//162 55//163
f 55//163 27//162 29//164
f 55//163 29//164 53//165
f 53//165 29//164 31//166
f 53//165 31//166 51//167
f 51//167 31//166 33//168
f 51//167 33//168 49//169
f 49//169 33//168 35//170
f 49//169 35//170 47//171
f 47//171 35//170 37//172
f 47//171 37//172 45//173
f 45//173 37//172 39//174
f 45//173 39//174 43//175
f 43//175 39//174 41//176
