# This file uses centimeters as units for non-parametric coordinates.

v -3.286531 -0.039238 9.381816
v -2.041414 -0.039238 9.381816
v -3.286531 22.862445 9.381816
v -2.041414 22.862445 9.381816
v -3.286531 22.862445 -9.323903
v -2.041414 22.862445 -9.323903
v -3.286531 -0.039238 -9.323903
v -2.041414 -0.039238 -9.323903
vn 0.000000 0.000000 1.000000
vn 0.000000 0.000000 1.000000
vn 0.000000 0.000000 1.000000
vn 0.000000 0.000000 1.000000
vn 0.000000 1.000000 0.000000
vn 0.000000 1.000000 0.000000
vn 0.000000 1.000000 0.000000
vn 0.000000 1.000000 0.000000
vn 0.000000 0.000000 -1.000000
vn 0.000000 0.000000 -1.000000
vn 0.000000 0.000000 -1.000000
vn 0.000000 0.000000 -1.000000
vn 0.000000 -1.000000 0.000000
vn 0.000000 -1.000000 0.000000
vn 0.000000 -1.000000 0.000000
vn 0.000000 -1.000000 0.000000
vn 1.000000 0.000000 0.000000
vn 1.000000 0.000000 0.000000
vn 1.000000 0.000000 0.000000
vn 1.000000 0.000000 0.000000
vn -1.000000 0.000000 0.000000
vn -1.000000 0.000000 0.000000
vn -1.000000 0.000000 0.000000
vn -1.000000 0.000000 0.000000
f 1//1 2//2 3//3
f 3//3 2//2 4//4
f 3//5 4//6 5//7
f 5//7 4//6 6//8
f 5//9 6//10 7//11
f 7//11 6//10 8//12
f 7//13 8//14 1//15
f 1//15 8//14 2//16
f 2//17 8//18 4//19
f 4//19 8//18 6//20
f 7//21 1//22 5//23
f 5//23 1//22 3//24
v -2.041414 11.960751 2.287541
v 8.969636 11.960751 2.287541
v -2.041414 13.099027 2.287541
v 8.969636 13.099027 2.287541
v -2.041414 13.099027 -2.345454
v 8.969636 13.099027 -2.345454
v -2.041414 11.960751 -2.345454
v 8.969636 11.960751 -2.345454
vn 0.000000 0.000000 1.000000
vn 0.000000 0.000000 1.000000
vn 0.000000 0.000000 1.000000
vn 0.000000 0.000000 1.000000
vn 0.000000 1.000000 0.000000
vn 0.000000 1.000000 0.000000
vn 0.000000 1.000000 0.000000
vn 0.000000 1.000000 0.000000
vn 0.000000 0.000000 -1.000000
vn 0.000000 0.000000 -1.000000
vn 0.000000 0.000000 -1.000000
vn 0.000000 0.000000 -1.000000
vn 0.000000 -1.000000 0.000000
vn 0.000000 -1.000000 0.000000
vn 0.000000 -1.000000 0.000000
vn 0.000000 -1.000000 0.000000
vn 1.000000 0.000000 0.000000
vn 1.000000 0.000000 0.000000
vn 1.000000 0.000000 0.000000
vn 1.000000 0.000000 0.000000
vn -1.000000 0.000000 0.000000
vn -1.000000 0.000000 0.000000
vn -1.000000 0.000000 0.000000
vn -1.000000 0.000000 0.000000
f 9//25 10//26 11//27
f 11//27 10//26 12//28
f 11//29 12//30 13//31
f 13//31 12//30 14//32
f 13//33 14//34 15//35
f 15//35 14//34 16//36
f 15//37 16//38 9//39
f 9//39 16//38 10//40
f 10//41 16//42 12//43
f 12//43 16//42 14//44
f 15//45 9//46 13//47
f 13//47 9//46 11//48
