# This file uses centimeters as units for non-parametric coordinates.

v -1.941304 -0.000000 1.978951
v 1.878265 -0.000000 1.978951
v -14.043869 22.783968 10.003885
v 13.508137 22.783968 10.003885
v -14.043869 22.783968 -9.801192
v 13.508137 22.783968 -9.801192
v -1.941304 -0.000000 -1.968869
v 1.878265 -0.000000 -1.968869
vn 0.000000 -0.332214 0.943204
vn 0.000000 -0.332214 0.943204
vn 0.000000 -0.332214 0.943204
vn 0.000000 -0.332214 0.943204
vn 0.000000 1.000000 0.000000
vn 0.000000 1.000000 0.000000
vn 0.000000 1.000000 0.000000
vn 0.000000 1.000000 0.000000
vn 0.000000 -0.325092 -0.945682
vn 0.000000 -0.325092 -0.945682
vn 0.000000 -0.325092 -0.945682
vn 0.000000 -0.325092 -0.945682
vn 0.000000 -1.000000 0.000000
vn 0.000000 -1.000000 0.000000
vn 0.000000 -1.000000 0.000000
vn 0.000000 -1.000000 0.000000
vn 0.890676 -0.454638 0.000000
vn 0.890676 -0.454638 0.000000
vn 0.890676 -0.454638 0.000000
vn 0.890676 -0.454638 0.000000
vn -0.883139 -0.469112 0.000000
vn -0.883139 -0.469112 0.000000
vn -0.883139 -0.469112 0.000000
vn -0.883139 -0.469112 0.000000
f 2//1 4//2 1//3
f 1//3 4//2 3//4
f 3//5 4//6 5//7
f 5//7 4//6 6//8
f 8//9 7//10 6//11
f 5//12 6//11 7//10
f 7//13 8//14 1//15
f 1//15 8//14 2//16
f 8//17 6//18 2//19
f 2//19 6//18 4//20
f 7//21 1//22 5//23
f 5//23 1//22 3//24
