# This file uses centimeters as units for non-parametric coordinates.

v -0.894465 1.261489 1.327210
v 0.900217 1.261489 1.327210
v -0.894465 1.981531 1.327210
v 0.900217 1.981531 1.327210
v -0.894465 1.981531 -3.386485
v 0.900217 1.981531 -3.386485
v -0.894465 1.261489 -3.386485
v 0.900217 1.261489 -3.386485
v 0.856269 -0.520997 5.324256
v 0.856269 0.626723 5.324256
v 1.969163 1.361233 -5.007076
v 1.969163 -1.255507 -5.007076
v 1.969163 1.361233 3.000000
v 1.969163 -1.255507 3.000000
v 0.029308 -0.520997 5.324256
v 0.029308 0.626723 5.324256
v 0.029308 1.361233 -5.007076
v 0.029308 -1.255507 -5.007076
v 0.029308 1.361233 3.000000
v 0.029308 -1.255507 3.000000
v 1.592334 -0.644934 -3.955939
v 1.558676 -0.644934 -0.405071
v 1.592334 0.750661 -3.955939
v 1.558676 0.750661 -0.405071
v 5.551455 0.518062 -4.934136
v 5.570662 0.518062 -1.779744
v 5.551455 -0.412335 -4.934136
v 5.570662 -0.412335 -1.779744
v 5.475224 -0.412335 -4.848860
v 5.454309 -0.412335 -1.836202
v 5.475224 0.518062 -4.848860
v 5.454309 0.518062 -1.836202
v 7.893709 0.518062 -7.652785
v 7.872795 0.518062 -4.798718
v 7.893709 -0.412335 -7.652785
v 7.872795 -0.412335 -4.798718
v 7.432919 -1.253561 -1.995595
v 9.245495 -1.253561 -1.995595
v 7.432919 1.359288 -1.995595
v 9.245495 1.359288 -1.995595
v 7.432919 1.359288 -9.898678
v 9.245495 1.359288 -9.898678
v 7.432919 -1.253561 -9.898678
v 9.245495 -1.253561 -9.898678
v -0.797654 -0.520997 5.324256
v -1.910547 -1.255507 3.000000
v -1.910547 1.361233 3.000000
v -0.797654 0.626723 5.324256
v -1.910547 -1.255507 -5.007076
v -1.910547 1.361233 -5.007076
v 0.029308 0.626723 5.324256
v 0.029308 -0.520997 5.324256
v 0.029308 1.361233 3.000000
v 0.029308 -1.255507 -5.007076
v 0.029308 1.361233 -5.007076
v 0.029308 -1.255507 3.000000
v -1.533718 -0.644934 -3.955939
v -1.500061 -0.644934 -0.405071
v -1.500061 0.750661 -0.405071
v -1.533718 0.750661 -3.955939
v -5.512047 0.518062 -1.779744
v -5.492840 0.518062 -4.934136
v -5.512047 -0.412335 -1.779744
v -5.492840 -0.412335 -4.934136
v -5.416608 -0.412335 -4.848860
v -5.395694 -0.412335 -1.836202
v -5.395694 0.518062 -1.836202
v -5.416608 0.518062 -4.848860
v -7.814179 0.518062 -4.798718
v -7.835093 0.518062 -7.652785
v -7.814179 -0.412335 -4.798718
v -7.835093 -0.412335 -7.652785
v -7.374303 -1.253561 -1.995595
v -9.186879 -1.253561 -1.995595
v -9.186879 1.359288 -1.995595
v -7.374303 1.359288 -1.995595
v -9.186879 1.359288 -9.898678
v -7.374303 1.359288 -9.898678
v -9.186879 -1.253561 -9.898678
v -7.374303 -1.253561 -9.898678
vn 0.000000 0.000000 1.000000
vn 0.000000 0.000000 1.000000
vn 0.000000 0.000000 1.000000
vn 0.000000 0.000000 1.000000
vn 0.000000 1.000000 0.000000
vn 0.000000 1.000000 0.000000
vn 0.000000 1.000000 0.000000
vn 0.000000 1.000000 0.000000
vn 0.000000 0.000000 -1.000000
vn 0.000000 0.000000 -1.000000
vn 0.000000 0.000000 -1.000000
vn 0.000000 0.000000 -1.000000
vn 0.000000 -1.000000 0.000000
vn 0.000000 -1.000000 0.000000
vn 0.000000 -1.000000 0.000000
vn 0.000000 -1.000000 0.000000
vn 1.000000 0.000000 0.000000
vn 1.000000 0.000000 0.000000
vn 1.000000 0.000000 0.000000
vn 1.000000 0.000000 0.000000
vn -1.000000 0.000000 0.000000
vn -1.000000 0.000000 0.000000
vn -1.000000 0.000000 0.000000
vn -1.000000 0.000000 0.000000
vn 0.901939 0.000000 0.431864
vn 0.996770 0.000000 0.080314
vn 0.901939 0.000000 0.431864
vn 0.995763 0.000000 0.091960
vn 1.000000 0.000000 0.000000
vn 1.000000 0.000000 0.000000
vn 0.000000 0.000000 1.000000
vn 0.000000 0.000000 1.000000
vn 0.000000 0.000000 1.000000
vn 0.000000 0.000000 1.000000
vn 0.000000 0.953520 0.301331
vn 0.000000 0.953520 0.301331
vn 0.000000 0.997937 0.064199
vn 0.000000 0.998486 0.055006
vn 0.000000 0.000000 -1.000000
vn 0.000000 0.000000 -1.000000
vn 0.000000 0.000000 -1.000000
vn 0.000000 0.000000 -1.000000
vn 0.000000 -0.953520 0.301331
vn 0.000000 -0.997937 0.064199
vn 0.000000 -0.953520 0.301331
vn 0.000000 -0.998486 0.055006
vn 0.000000 1.000000 0.000000
vn 0.000000 1.000000 0.000000
vn 0.000000 -1.000000 0.000000
vn 0.000000 -1.000000 0.000000
vn -0.999955 0.000000 -0.009478
vn -0.999955 0.000000 -0.009478
vn -0.999955 0.000000 -0.009478
vn -0.999955 0.000000 -0.009478
vn 0.058067 0.998313 0.000550
vn 0.058329 0.998297 0.000069
vn 0.058253 0.998302 0.000209
vn 0.058561 0.998284 -0.000357
vn 0.999982 0.000000 -0.006089
vn 0.999981 0.000000 -0.006089
vn 0.999981 0.000000 -0.006089
vn 0.999982 0.000000 -0.006089
vn 0.058561 -0.998284 -0.000357
vn 0.058329 -0.998297 0.000069
vn 0.058253 -0.998302 0.000209
vn 0.058067 -0.998313 0.000550
vn 0.324142 0.000000 0.946009
vn 0.324142 0.000000 0.946009
vn 0.324142 0.000000 0.946009
vn 0.324142 0.000000 0.946009
vn -0.239862 0.000000 -0.970807
vn -0.239862 0.000000 -0.970807
vn -0.239862 0.000000 -0.970807
vn -0.239862 0.000000 -0.970807
vn -0.999976 0.000000 -0.006942
vn -0.999976 0.000000 -0.006942
vn -0.999976 0.000000 -0.006942
vn -0.999976 0.000000 -0.006942
vn 0.000000 1.000000 -0.000000
vn 0.000000 1.000000 -0.000000
vn 0.000000 1.000000 -0.000000
vn 0.000000 1.000000 0.000000
vn 0.999973 0.000000 0.007328
vn 0.999973 0.000000 0.007328
vn 0.999973 0.000000 0.007328
vn 0.999973 0.000000 0.007328
vn 0.000000 -1.000000 0.000000
vn 0.000000 -1.000000 0.000000
vn 0.000000 -1.000000 0.000000
vn 0.000000 -1.000000 0.000000
vn 0.774648 0.000000 0.632393
vn 0.774648 0.000000 0.632393
vn 0.774648 0.000000 0.632393
vn 0.774648 0.000000 0.632393
vn -0.757235 0.000000 -0.653142
vn -0.757235 0.000000 -0.653142
vn -0.757235 0.000000 -0.653142
vn -0.757235 0.000000 -0.653142
vn 0.000000 0.000000 1.000000
vn 0.000000 0.000000 1.000000
vn 0.000000 0.000000 1.000000
vn 0.000000 0.000000 1.000000
vn 0.000000 1.000000 0.000000
vn 0.000000 1.000000 0.000000
vn 0.000000 1.000000 0.000000
vn 0.000000 1.000000 0.000000
vn 0.000000 0.000000 -1.000000
vn 0.000000 0.000000 -1.000000
vn 0.000000 0.000000 -1.000000
vn 0.000000 0.000000 -1.000000
vn 0.000000 -1.000000 0.000000
vn 0.000000 -1.000000 0.000000
vn 0.000000 -1.000000 0.000000
vn 0.000000 -1.000000 0.000000
vn 1.000000 0.000000 0.000000
vn 1.000000 0.000000 0.000000
vn 1.000000 0.000000 0.000000
vn 1.000000 0.000000 0.000000
vn -1.000000 0.000000 0.000000
vn -1.000000 0.000000 0.000000
vn -1.000000 0.000000 0.000000
vn -1.000000 0.000000 0.000000
vn -0.901939 0.000000 0.431864
vn -0.901939 0.000000 0.431864
vn -0.996770 0.000000 0.080314
vn -0.995763 0.000000 0.091960
vn -1.000000 0.000000 0.000000
vn -1.000000 0.000000 0.000000
vn 0.000000 0.000000 1.000000
vn 0.000000 0.000000 1.000000
vn 0.000000 0.000000 1.000000
vn 0.000000 0.000000 1.000000
vn 0.000000 0.998486 0.055006
vn 0.000000 0.953520 0.301331
vn 0.000000 0.997937 0.064199
vn 0.000000 0.953520 0.301331
vn 0.000000 0.000000 -1.000000
vn 0.000000 0.000000 -1.000000
vn 0.000000 0.000000 -1.000000
vn 0.000000 0.000000 -1.000000
vn 0.000000 -0.953520 0.301331
vn 0.000000 -0.953520 0.301331
vn 0.000000 -0.997937 0.064199
vn 0.000000 -0.998486 0.055006
vn 0.000000 1.000000 0.000000
vn 0.000000 1.000000 0.000000
vn 0.000000 -1.000000 0.000000
vn 0.000000 -1.000000 0.000000
vn 0.999955 0.000000 -0.009478
vn 0.999955 0.000000 -0.009478
vn 0.999955 0.000000 -0.009478
vn 0.999955 0.000000 -0.009478
vn -0.058561 0.998284 -0.000357
vn -0.058329 0.998297 0.000069
vn -0.058253 0.998302 0.000209
vn -0.058067 0.998313 0.000550
vn -0.999982 0.000000 -0.006089
vn -0.999981 0.000000 -0.006089
vn -0.999981 0.000000 -0.006089
vn -0.999982 0.000000 -0.006089
vn -0.058561 -0.998284 -0.000357
vn -0.058253 -0.998302 0.000209
vn -0.058329 -0.998297 0.000069
vn -0.058067 -0.998313 0.000550
vn -0.324142 0.000000 0.946009
vn -0.324142 0.000000 0.946009
vn -0.324142 0.000000 0.946009
vn -0.324142 0.000000 0.946009
vn 0.239862 0.000000 -0.970807
vn 0.239862 0.000000 -0.970807
vn 0.239862 0.000000 -0.970807
vn 0.239862 0.000000 -0.970807
vn 0.999976 0.000000 -0.006942
vn 0.999976 0.000000 -0.006942
vn 0.999976 0.000000 -0.006942
vn 0.999976 0.000000 -0.006942
vn 0.000000 1.000000 0.000000
vn 0.000000 1.000000 -0.000000
vn 0.000000 1.000000 -0.000000
vn 0.000000 1.000000 -0.000000
vn -0.999973 0.000000 0.007328
vn -0.999973 0.000000 0.007328
vn -0.999973 0.000000 0.007328
vn -0.999973 0.000000 0.007328
vn 0.000000 -1.000000 -0.000000
vn 0.000000 -1.000000 -0.000000
vn 0.000000 -1.000000 -0.000000
vn 0.000000 -1.000000 0.000000
vn -0.774648 0.000000 0.632393
vn -0.774648 0.000000 0.632393
vn -0.774648 0.000000 0.632393
vn -0.774648 0.000000 0.632393
vn 0.757235 0.000000 -0.653142
vn 0.757235 0.000000 -0.653142
vn 0.757235 0.000000 -0.653142
vn 0.757235 0.000000 -0.653142
vn 0.000000 0.000000 1.000000
vn 0.000000 0.000000 1.000000
vn 0.000000 0.000000 1.000000
vn 0.000000 0.000000 1.000000
vn 0.000000 1.000000 0.000000
vn 0.000000 1.000000 0.000000
vn 0.000000 1.000000 0.000000
vn 0.000000 1.000000 0.000000
vn 0.000000 0.000000 -1.000000
vn 0.000000 0.000000 -1.000000
vn 0.000000 0.000000 -1.000000
vn 0.000000 0.000000 -1.000000
vn 0.000000 -1.000000 0.000000
vn 0.000000 -1.000000 0.000000
vn 0.000000 -1.000000 0.000000
vn 0.000000 -1.000000 0.000000
vn -1.000000 0.000000 0.000000
vn -1.000000 0.000000 0.000000
vn -1.000000 0.000000 0.000000
vn -1.000000 0.000000 0.000000
vn 1.000000 0.000000 0.000000
vn 1.000000 0.000000 0.000000
vn 1.000000 0.000000 0.000000
vn 1.000000 0.000000 0.000000
f 1//1 2//2 3//3
f 3//3 2//2 4//4
f 3//5 4//6 5//7
f 5//7 4//6 6//8
f 5//9 6//10 7//11
f 7//11 6//10 8//12
f 7//13 8//14 1//15
f 1//15 8//14 2//16
f 2//17 8//18 4//19
f 4//19 8//18 6//20
f 7//21 1//22 5//23
f 5//23 1//22 3//24
f 9//25 14//26 10//27
f 10//27 14//26 13//28
f 13//28 14//26 11//29
f 11//29 14//26 12//30
f 16//31 15//32 10//33
f 10//33 15//32 9//34
f 16//35 10//36 19//37
f 19//37 10//36 13//38
f 18//39 17//40 12//41
f 12//41 17//40 11//42
f 15//43 20//44 9//45
f 9//45 20//44 14//46
f 17//47 19//37 11//48
f 11//48 19//37 13//38
f 20//44 18//49 14//46
f 14//46 18//49 12//50
f 21//51 22//52 23//53
f 23//53 22//52 24//54
f 24//55 26//56 23//57
f 23//57 26//56 25//58
f 25//59 26//60 27//61
f 27//61 26//60 28//62
f 27//63 28//64 21//65
f 21//65 28//64 22//66
f 22//67 28//68 24//69
f 24//69 28//68 26//70
f 27//71 21//72 25//73
f 25//73 21//72 23//74
f 29//75 30//76 31//77
f 31//77 30//76 32//78
f 32//79 34//80 31//81
f 31//81 34//80 33//82
f 33//83 34//84 35//85
f 35//85 34//84 36//86
f 35//87 36//88 29//89
f 29//89 36//88 30//90
f 30//91 36//92 32//93
f 32//93 36//92 34//94
f 35//95 29//96 33//97
f 33//97 29//96 31//98
f 37//99 38//100 39//101
f 39//101 38//100 40//102
f 39//103 40//104 41//105
f 41//105 40//104 42//106
f 41//107 42//108 43//109
f 43//109 42//108 44//110
f 43//111 44//112 37//113
f 37//113 44//112 38//114
f 38//115 44//116 40//117
f 40//117 44//116 42//118
f 43//119 37//120 41//121
f 41//121 37//120 39//122
f 45//123 48//124 46//125
f 46//125 48//124 47//126
f 47//126 50//127 46//125
f 46//125 50//127 49//128
f 51//129 48//130 52//131
f 52//131 48//130 45//132
f 47//133 48//134 53//135
f 53//135 48//134 51//136
f 54//137 49//138 55//139
f 55//139 49//138 50//140
f 52//141 45//142 56//143
f 56//143 45//142 46//144
f 55//145 50//146 53//135
f 53//135 50//146 47//133
f 56//143 46//144 54//147
f 54//147 46//144 49//148
f 57//149 60//150 58//151
f 58//151 60//150 59//152
f 62//153 61//154 60//155
f 60//155 61//154 59//156
f 62//157 64//158 61//159
f 61//159 64//158 63//160
f 64//161 57//162 63//163
f 63//163 57//162 58//164
f 58//165 59//166 63//167
f 63//167 59//166 61//168
f 64//169 62//170 57//171
f 57//171 62//170 60//172
f 65//173 68//174 66//175
f 66//175 68//174 67//176
f 70//177 69//178 68//179
f 68//179 69//178 67//180
f 70//181 72//182 69//183
f 69//183 72//182 71//184
f 72//185 65//186 71//187
f 71//187 65//186 66//188
f 66//189 67//190 71//191
f 71//191 67//190 69//192
f 72//193 70//194 65//195
f 65//195 70//194 68//196
f 73//197 76//198 74//199
f 74//199 76//198 75//200
f 76//201 78//202 75//203
f 75//203 78//202 77//204
f 78//205 80//206 77//207
f 77//207 80//206 79//208
f 80//209 73//210 79//211
f 79//211 73//210 74//212
f 74//213 75//214 79//215
f 79//215 75//214 77//216
f 80//217 78//218 73//219
f 73//219 78//218 76//220
